<?xml version="1.0" encoding="utf-8"?>
<!-- Generator: Adobe Illustrator 24.3.0, SVG Export Plug-In . SVG Version: 6.00 Build 0)  -->
<svg version="1.1" id="Calque_1" xmlns="http://www.w3.org/2000/svg" xmlns:xlink="http://www.w3.org/1999/xlink" x="0px" y="0px"
	 viewBox="0 0 2000 2000" style="enable-background:new 0 0 2000 2000;" xml:space="preserve">
<style type="text/css">
	.st0{clip-path:url(#SVGID_2_);fill:#00CDC0;}
	.st1{clip-path:url(#SVGID_4_);fill:#11ABC5;}
	.st2{clip-path:url(#SVGID_6_);fill:#2189C9;}
	.st3{clip-path:url(#SVGID_8_);fill:#3267CE;}
	.st4{clip-path:url(#SVGID_10_);fill:#4245D2;}
	.st5{clip-path:url(#SVGID_12_);fill:#5323D7;}
	.st6{fill:#FFFFFF;}
</style>
<g id="Rond">
	<g>
		<g>
			<defs>
				<circle id="SVGID_1_" cx="1000" cy="1000" r="1000"/>
			</defs>
			<clipPath id="SVGID_2_">
				<use xlink:href="#SVGID_1_"  style="overflow:visible;"/>
			</clipPath>
			<rect x="-148" class="st0" width="2276" height="333.3"/>
		</g>
		<g>
			<defs>
				<circle id="SVGID_3_" cx="1000" cy="1000" r="1000"/>
			</defs>
			<clipPath id="SVGID_4_">
				<use xlink:href="#SVGID_3_"  style="overflow:visible;"/>
			</clipPath>
			<rect x="-156" y="327.6" class="st1" width="2276" height="339"/>
		</g>
		<g>
			<defs>
				<circle id="SVGID_5_" cx="1000" cy="1000" r="1000"/>
			</defs>
			<clipPath id="SVGID_6_">
				<use xlink:href="#SVGID_5_"  style="overflow:visible;"/>
			</clipPath>
			<rect x="-164" y="661.1" class="st2" width="2276" height="338.9"/>
		</g>
		<g>
			<defs>
				<circle id="SVGID_7_" cx="1000" cy="1000" r="1000"/>
			</defs>
			<clipPath id="SVGID_8_">
				<use xlink:href="#SVGID_7_"  style="overflow:visible;"/>
			</clipPath>
			<rect x="-172" y="994.6" class="st3" width="2276" height="338.7"/>
		</g>
		<g>
			<defs>
				<circle id="SVGID_9_" cx="1000" cy="1000" r="1000"/>
			</defs>
			<clipPath id="SVGID_10_">
				<use xlink:href="#SVGID_9_"  style="overflow:visible;"/>
			</clipPath>
			<rect x="-180" y="1323.4" class="st4" width="2276" height="343.3"/>
		</g>
		<g>
			<defs>
				<circle id="SVGID_11_" cx="1000" cy="999.7" r="1000"/>
			</defs>
			<clipPath id="SVGID_12_">
				<use xlink:href="#SVGID_11_"  style="overflow:visible;"/>
			</clipPath>
			<rect x="-188" y="1661.6" class="st5" width="2276" height="338.1"/>
		</g>
	</g>
</g>
<g id="Typographie">
	<g>
		<path class="st6" d="M483,900.4l136.3-357h61.4l135.8,357H745l-33.2-89H587.1l-32.7,89H483z M598.7,762.6h100.6L650,622.2
			L598.7,762.6z"/>
		<path class="st6" d="M1132.3,900.4H880.8v-357h69.4v296.2h182V900.4z"/>
		<path class="st6" d="M1186.1,543.3h75.4l89,132.8l88.5-132.8h74.9l-127.2,181l123.2,176H1435l-84.5-127.7l-85,127.7h-75.4
			l123.2-176L1186.1,543.3z"/>
	</g>
	<g>
		<path class="st6" d="M772.2,1358.5c0,29.5-11.9,52.3-35.7,68.4c-11.1,7.4-24,13.1-38.7,17.1c-14.8,4-30.4,6-46.8,6H477v-357h198.6
			c12.1,0,23.1,2.5,33.2,7.6c10,5,18.8,12.1,26.2,21.1c7,8.4,12.5,18.1,16.4,29.2c3.8,11.1,5.8,22.3,5.8,33.7
			c0,17.8-4.4,34-13.3,48.8s-21.6,26-38,33.7c20.8,6,37,16.8,48.8,32.4C766.4,1315,772.2,1334.7,772.2,1358.5z M643.5,1163.4h-84
			v73.9h81c9.7,0,17.9-3.2,24.6-9.6c6.7-6.4,10-15.6,10-27.6c0-11.4-3-20.4-9-26.9C660.1,1166.6,652.5,1163.4,643.5,1163.4z
			 M688.2,1341.9c0-11.1-3.2-20.4-9.6-28.2c-6.4-7.7-14.4-11.6-24.1-11.6h-95v78H651c10.7,0,19.6-3.5,26.6-10.6
			C684.7,1362.5,688.2,1353.3,688.2,1341.9z"/>
		<path class="st6" d="M1096.6,1129.2l-36.2,68.4c-1-1.7-4.5-4.2-10.6-7.6c-14.4-9-31.8-16.4-52.3-22.1c-10.4-3-21.1-4.5-32.2-4.5
			c-29.5,0-44.2,9.9-44.2,29.7c0,6,1.6,11.1,4.8,15.1c3.2,4,8,7.6,14.3,10.6c5.4,3,13.1,6,23.1,9s21,6,32.7,9
			c19.1,5.4,35.2,10.8,48.3,16.4c13.1,5.5,24.1,12,33.2,19.4c19.8,17.1,29.7,41.2,29.7,72.4c0,37.2-13.8,65.4-41.2,84.5
			c-12.1,8.4-26.1,14.6-42,18.6c-15.9,4-32.8,6-50.6,6c-27.5,0-54.3-4-80.5-12.1c-28.5-8.4-52.5-19.1-71.9-32.2l36.2-71.9
			c2.7,2.7,7,5.9,13.1,9.6c15.4,10,36.7,19,63.9,26.6c14.1,3.7,27.6,5.5,40.7,5.5c29.2,0,43.8-8.9,43.8-26.6c0-6.4-2-11.8-6-16.4
			c-4-4.5-10.2-8.6-18.6-12.3c-6.7-3-15.8-6.2-27.2-9.6c-19.1-5.4-34.2-9.8-45.2-13.3c-11.1-3.5-21.8-8-32.2-13.3
			c-24.1-11.7-39.9-27.3-47.3-46.8c-4-10-6-21.8-6-35.2c0-35.9,13.1-64.7,39.2-86.5c12.1-9.7,26-17.1,41.8-22.1
			c15.8-5,32.7-7.6,50.8-7.6c23.1,0,46.9,4.2,71.4,12.6C1058.7,1109.2,1077.8,1118.1,1096.6,1129.2z"/>
		<path class="st6" d="M1442.6,1450l-18.6-20.1c-27.5,15.1-56.5,22.6-87,22.6c-25.8,0-49.7-5-71.7-14.8c-22-9.9-40.8-23.7-56.6-41.5
			c-15.4-17.1-27.4-36.4-36-58.1c-8.6-21.6-12.8-44-12.8-67.1s4.4-45.7,13.3-67.6s21.4-41.3,37.5-58.1
			c16.4-17.4,35.5-30.9,57.3-40.5c21.8-9.6,45.2-14.3,70.4-14.3c25.5,0,49.2,5.1,71.2,15.3c22,10.2,41,24.2,57.1,42
			c15.4,17.1,27.3,36.6,35.7,58.3c8.4,21.8,12.6,43.9,12.6,66.4c0,22.8-4,44.6-12.1,65.4c-8,20.8-19.4,39.4-34.2,55.8l51.3,56.3
			H1442.6z M1337.4,1379.1c13.8,0,25.5-2.2,35.2-6.5l-57.3-63.4h77.4l22.1,24.6c10.7-18.8,16.1-39.7,16.1-62.9c0-14.1-2-27.5-6-40.2
			c-4-12.7-10-24.1-18.1-34.2c-17.8-21.8-40.9-32.7-69.4-32.7c-29.2,0-52.5,11.2-69.9,33.7c-7.7,10-13.6,21.6-17.6,34.4
			c-4,12.9-6,26.2-6,40c0,14.1,2,27.5,6,40.2s10,24,18.1,33.7c8,10.4,17.9,18.5,29.7,24.4
			C1309.4,1376.2,1322.7,1379.1,1337.4,1379.1z"/>
	</g>
</g>
</svg>
